<?xml version="1.0" encoding="utf-8"?>
<!-- Generator: Adobe Illustrator 27.0.0, SVG Export Plug-In . SVG Version: 6.00 Build 0)  -->
<svg version="1.1" id="Layer_1" xmlns="http://www.w3.org/2000/svg" xmlns:xlink="http://www.w3.org/1999/xlink" x="0px" y="0px"
	 viewBox="0 0 2000 2000" style="enable-background:new 0 0 2000 2000;" xml:space="preserve">
<style type="text/css">
	.st0{fill:#49E59A;}
</style>
<g id="Layer_1-2_00000109725803747602965780000015980866435604400817_">
	<g>
		<g>
			<path class="st0" d="M1936.09,882.4C1877.49,411.66,1475.09,56.68,1000,56.68c-276.8,0-538.64,120.97-718.32,331.9
				c-29.17,34.22-56.12,70.87-80.07,108.91C106.8,647.73,56.7,821.54,56.7,1000.03s50.1,352.24,144.91,502.48
				c24,38.04,50.96,74.69,80.07,108.91c179.67,210.94,441.52,331.9,718.32,331.9c475.09,0,877.49-354.99,936.03-825.72
				c4.84-38.64,7.26-78.19,7.26-117.58c0-39.39-2.42-78.99-7.26-117.63L1936.09,882.4z M1000.05,1875.74
				c-257,0-500.06-112.3-666.87-308.17c-27.07-31.75-52.09-65.76-74.37-101.11c-81.95-129.95-127.91-278.85-133.77-432.64h444.21
				c15.77,66.78,77,116.12,149.11,113.32c74.64-2.91,136.25-62.85,141.09-137.38c5.54-85.56-62.53-156.97-146.96-156.97
				c-69.58,0-127.96,48.48-143.3,113.43H124.99c5.87-153.79,51.82-302.74,133.77-432.69c22.28-35.3,47.3-69.31,74.37-101.11
				C499.94,236.62,743,124.32,1000,124.32c428.12,0,792.68,310.54,863.34,728.49h-273.84c-39.34,0-77-15.66-104.82-43.48
				l-26.37-26.47c-27.77-27.82-65.49-43.48-104.82-43.48h-210.29c-15.77-66.78-77-116.12-149.11-113.32
				c-74.64,2.91-136.25,62.85-141.09,137.38c-5.54,85.56,62.53,156.97,146.96,156.97c69.58,0,127.96-48.48,143.3-113.43h182.2
				c39.34,0,77,15.66,104.82,43.48l26.37,26.47c27.77,27.82,65.49,43.48,104.82,43.48h310.59c2.37,26.37,3.61,53.06,3.61,79.64
				c0,26.58-1.24,53.27-3.61,79.59h-310.59c-39.34,0-77,15.66-104.82,43.48l-26.37,26.47c-27.77,27.82-65.49,43.48-104.82,43.48
				h-182.2c-15.77-66.78-77-116.12-149.11-113.32c-74.64,2.91-136.25,62.85-141.09,137.38c-5.54,85.56,62.53,156.97,146.96,156.97
				c69.58,0,127.96-48.48,143.3-113.43h210.29c39.34,0,77-15.66,104.82-43.48l26.37-26.47c27.77-27.82,65.49-43.48,104.82-43.48
				h273.84c-70.65,417.89-435.22,728.49-863.34,728.49L1000.05,1875.74z M632.9,1000.03c0-43.91,35.73-79.64,79.64-79.64
				s79.64,35.73,79.64,79.64s-35.73,79.64-79.64,79.64S632.9,1043.94,632.9,1000.03z M1079.64,773.16
				c0,43.91-35.73,79.64-79.64,79.64c-43.91,0-79.64-35.73-79.64-79.64c0-43.91,35.73-79.64,79.64-79.64
				C1043.91,693.52,1079.64,729.25,1079.64,773.16z M1079.64,1226.89c0,43.91-35.73,79.64-79.64,79.64
				c-43.91,0-79.64-35.73-79.64-79.64s35.73-79.64,79.64-79.64C1043.91,1147.25,1079.64,1182.98,1079.64,1226.89z"/>
			<path class="st0" d="M1643.25,757.93L1643.25,757.93c24.43,0,40.63-25.02,30.99-47.46C1561.14,447.34,1299.08,266.43,1000,266.43
				c-215.3,0-418.86,94.06-558.61,258.08c-22.65,26.58-43.64,55.1-62.26,84.7c-43.05,68.29-74.26,142.81-92.77,220.68
				c-5.06,21.2,11.19,41.54,32.99,41.54h0.05c15.71,0,29.27-10.87,32.93-26.21c16.79-70.55,44.99-138.08,84-199.91
				c16.95-26.85,35.95-52.73,56.55-76.9C619.72,419.52,804.56,334.07,1000,334.07c271.64,0,509.53,164.34,612.2,403.36
				c5.33,12.43,17.54,20.56,31.05,20.56V757.93z"/>
			<path class="st0" d="M1643.25,1242.07c-13.56,0-25.72,8.07-31.05,20.56c-102.62,238.97-340.57,403.36-612.2,403.36
				c-195.44,0-380.28-85.4-507.11-234.34c-20.61-24.16-39.6-50.04-56.55-76.9c-39.01-61.83-67.21-129.36-84-199.91
				c-3.66-15.34-17.17-26.21-32.93-26.21h-0.05c-21.79,0-37.99,20.34-32.99,41.54c18.51,77.86,49.72,152.39,92.77,220.62
				c18.67,29.6,39.6,58.06,62.26,84.7c139.69,164.01,343.31,258.13,558.61,258.13c299.08,0,561.08-180.91,674.25-444.04
				c9.63-22.44-6.56-47.46-30.99-47.46l0,0L1643.25,1242.07z"/>
		</g>
	</g>
</g>
</svg>
