<?xml version="1.0" encoding="utf-8"?>
<!-- Generator: Adobe Illustrator 27.0.0, SVG Export Plug-In . SVG Version: 6.00 Build 0)  -->
<svg version="1.1" id="Layer_1" xmlns="http://www.w3.org/2000/svg" xmlns:xlink="http://www.w3.org/1999/xlink" x="0px" y="0px"
	 viewBox="0 0 2000 670.68" style="enable-background:new 0 0 2000 670.68;" xml:space="preserve">
<style type="text/css">
	.st0{fill:#123227;}
</style>
<g id="Layer_1-2_00000103266454839215286700000007799867582404087190_">
	<g>
		<g>
			<path class="st0" d="M720.62,222.46h85.71c44.78,0,74.51,26.85,74.51,68.75c0,31.34-18.88,55.66-47.66,63.63l50.22,91.46h-31.34
				l-47.35-86.02h-56.26v86.02h-27.83V222.43V222.46z M748.46,248.05v86.69h55.66c29.41,0,48.29-17.27,48.29-43.48
				s-18.88-43.17-47.98-43.17h-55.98V248.05z"/>
			<path class="st0" d="M957.28,446.34l85.39-223.88h32.96l85.07,223.88h-29.76l-23.66-60.44h-97.57l-23.65,60.44H957.28
				L957.28,446.34z M1018.03,360.64h80.93l-40.61-107.78l-40.29,107.78H1018.03z"/>
			<path class="st0" d="M1249.88,446.34V222.46h71.63c70.05,0,112.59,44.78,112.59,111.96s-42.54,111.96-112.59,111.96h-71.63
				V446.34z M1277.71,420.76h43.8c54.36,0,84.13-34.22,84.13-86.37s-29.76-86.34-84.13-86.34h-43.8V420.76z"/>
			<path class="st0" d="M1576.73,331.54l-70.68-109.08h32.64l55.98,86.69l55.98-86.69h31.97l-70.68,107.15l75.49,116.73h-32.96
				l-60.79-93.71l-60.12,93.71h-32.32l75.49-114.84L1576.73,331.54z"/>
			<path class="st0" d="M1776.6,222.46h27.83v129.86c0,46.36,18.57,70.37,57.24,70.37c38.68,0,57.87-23.97,57.87-70.37V222.46h27.83
				V350.7c0,63.98-29.76,97.57-85.71,97.57c-55.94,0-85.07-33.59-85.07-97.57L1776.6,222.46L1776.6,222.46z"/>
		</g>
		<g>
			<path class="st0" d="M607.31,300.63C590.01,161.7,471.25,56.92,331.03,56.92c-81.7,0-158.98,35.7-212.01,97.96
				c-8.61,10.1-16.56,20.92-23.63,32.14c-27.98,44.34-42.77,95.64-42.77,148.32s14.79,103.96,42.77,148.3
				c7.08,11.23,15.04,22.04,23.63,32.14c53.03,62.26,130.31,97.96,212.01,97.96c140.22,0,258.99-104.77,276.27-243.71
				c1.43-11.4,2.14-23.08,2.14-34.7s-0.71-23.31-2.14-34.72L607.31,300.63z M331.04,593.81c-75.85,0-147.59-33.15-196.82-90.96
				c-7.99-9.37-15.37-19.41-21.95-29.84c-24.19-38.35-37.75-82.3-39.48-127.69h131.1c4.65,19.71,22.73,34.27,44.01,33.45
				c22.03-0.86,40.21-18.55,41.64-40.55c1.64-25.25-18.45-46.33-43.37-46.33c-20.54,0-37.77,14.31-42.29,33.48H72.77
				c1.73-45.39,15.29-89.35,39.48-127.71c6.58-10.42,13.96-20.46,21.95-29.84c49.23-57.79,120.97-90.94,196.82-90.94
				c126.36,0,233.96,91.65,254.81,215.01h-80.82c-11.61,0-22.73-4.62-30.94-12.83l-7.78-7.81c-8.2-8.21-19.33-12.83-30.94-12.83
				h-62.07c-4.65-19.71-22.73-34.27-44.01-33.45c-22.03,0.86-40.21,18.55-41.64,40.55c-1.64,25.25,18.45,46.33,43.37,46.33
				c20.54,0,37.77-14.31,42.29-33.48h53.78c11.61,0,22.73,4.62,30.94,12.83l7.78,7.81c8.2,8.21,19.33,12.83,30.94,12.83h91.67
				c0.7,7.78,1.06,15.66,1.06,23.51c0,7.85-0.37,15.72-1.06,23.49h-91.67c-11.61,0-22.73,4.62-30.94,12.83l-7.78,7.81
				c-8.2,8.21-19.33,12.83-30.94,12.83H373.3c-4.65-19.71-22.73-34.27-44.01-33.45c-22.03,0.86-40.21,18.55-41.64,40.55
				c-1.64,25.25,18.45,46.33,43.37,46.33c20.54,0,37.77-14.31,42.29-33.48h62.07c11.61,0,22.73-4.62,30.94-12.83l7.78-7.81
				c8.2-8.21,19.33-12.83,30.94-12.83h80.82c-20.85,123.34-128.45,215.01-254.81,215.01L331.04,593.81z M222.68,335.35
				c0-12.96,10.55-23.51,23.51-23.51c12.96,0,23.51,10.55,23.51,23.51c0,12.96-10.55,23.51-23.51,23.51
				C233.23,358.85,222.68,348.31,222.68,335.35z M354.53,268.39c0,12.96-10.55,23.51-23.51,23.51c-12.96,0-23.51-10.55-23.51-23.51
				c0-12.96,10.55-23.51,23.51-23.51C343.99,244.89,354.53,255.43,354.53,268.39z M354.53,402.31c0,12.96-10.55,23.51-23.51,23.51
				c-12.96,0-23.51-10.55-23.51-23.51s10.55-23.51,23.51-23.51C343.99,378.8,354.53,389.35,354.53,402.31z"/>
			<path class="st0" d="M520.88,263.9L520.88,263.9c7.21,0,11.99-7.39,9.15-14.01c-33.38-77.66-110.73-131.06-199-131.06
				c-63.54,0-123.62,27.76-164.87,76.17c-6.69,7.85-12.88,16.26-18.38,25c-12.71,20.15-21.92,42.15-27.38,65.13
				c-1.49,6.26,3.3,12.26,9.74,12.26h0.02c4.64,0,8.64-3.21,9.72-7.73c4.96-20.82,13.28-40.75,24.79-59
				c5-7.93,10.61-15.56,16.69-22.7c37.43-43.95,91.99-69.17,149.67-69.17c80.17,0,150.39,48.5,180.69,119.05
				c1.57,3.67,5.18,6.07,9.16,6.07V263.9z"/>
			<path class="st0" d="M520.88,406.79c-4,0-7.59,2.38-9.16,6.07C481.43,483.38,411.2,531.9,331.03,531.9
				c-57.68,0-112.24-25.2-149.67-69.17c-6.08-7.13-11.69-14.77-16.69-22.7c-11.51-18.25-19.84-38.18-24.79-59
				c-1.08-4.53-5.07-7.73-9.72-7.73h-0.02c-6.43,0-11.21,6-9.74,12.26c5.46,22.98,14.67,44.98,27.38,65.12
				c5.51,8.74,11.69,17.14,18.38,25c41.23,48.41,101.33,76.19,164.87,76.19c88.27,0,165.6-53.39,199-131.06
				c2.84-6.62-1.94-14.01-9.15-14.01l0,0L520.88,406.79z"/>
		</g>
	</g>
</g>
</svg>
