<?xml version="1.0" encoding="utf-8"?>
<!-- Generator: Adobe Illustrator 27.0.0, SVG Export Plug-In . SVG Version: 6.00 Build 0)  -->
<svg version="1.1" id="Layer_1" xmlns="http://www.w3.org/2000/svg" xmlns:xlink="http://www.w3.org/1999/xlink" x="0px" y="0px"
	 viewBox="0 0 2000 670.68" style="enable-background:new 0 0 2000 670.68;" xml:space="preserve">
<style type="text/css">
	.st0{fill:#49E59A;}
</style>
<g id="Layer_1-2_00000129186689652946293520000010914814980599608704_">
	<g>
		<g>
			<path class="st0" d="M27.09,156.28h135.94c71.03,0,118.18,42.59,118.18,109.05c0,49.71-29.95,88.29-75.6,100.93l79.66,145.07
				h-49.71l-75.1-136.44H71.23v136.44H27.09V156.23V156.28z M71.23,196.87v137.5h88.29c46.65,0,76.6-27.39,76.6-68.97
				s-29.95-68.47-76.1-68.47H71.23V196.87z"/>
			<path class="st0" d="M402.46,511.39L537.9,156.28h52.27l134.94,355.11H677.9l-37.52-95.86H485.62l-37.52,95.86H402.46
				L402.46,511.39z M498.82,375.45h128.37l-64.41-170.96l-63.91,170.96H498.82z"/>
			<path class="st0" d="M866.56,511.39V156.28h113.62c111.11,0,178.58,71.03,178.58,177.58s-67.47,177.58-178.58,177.58H866.56
				V511.39z M910.71,470.81h69.47c86.23,0,133.44-54.28,133.44-137s-47.21-136.94-133.44-136.94h-69.47V470.81z"/>
			<path class="st0" d="M1385,329.3l-112.12-173.02h51.77l88.79,137.5l88.79-137.5h50.71l-112.12,169.96l119.74,185.15h-52.27
				l-96.42-148.63l-95.36,148.63h-51.27L1385,329.24L1385,329.3z"/>
			<path class="st0" d="M1702.03,156.28h44.14v205.97c0,73.54,29.45,111.61,90.8,111.61s91.8-38.02,91.8-111.61V156.28h44.14V359.7
				c0,101.48-47.21,154.76-135.94,154.76c-88.74,0-134.94-53.27-134.94-154.76L1702.03,156.28L1702.03,156.28z"/>
		</g>
	</g>
</g>
</svg>
