<?xml version="1.0" encoding="utf-8"?>
<!-- Generator: Adobe Illustrator 27.0.0, SVG Export Plug-In . SVG Version: 6.00 Build 0)  -->
<svg version="1.1" id="Layer_1" xmlns="http://www.w3.org/2000/svg" xmlns:xlink="http://www.w3.org/1999/xlink" x="0px" y="0px"
	 viewBox="0 0 2000 2000" style="enable-background:new 0 0 2000 2000;" xml:space="preserve">
<style type="text/css">
	.st0{fill:#FFFFFF;}
</style>
<g id="Layer_1-2_00000109725803747602965780000015980866435604400817_">
	<g>
		<g>
			<path class="st0" d="M297.91,1670.6h98.4c51.42,0,85.55,30.83,85.55,78.94c0,35.98-21.68,63.91-54.72,73.05l57.66,105.01h-35.98
				l-54.36-98.76h-64.59v98.76h-31.95v-257.04V1670.6z M329.86,1699.98v99.53h63.91c33.77,0,55.45-19.82,55.45-49.92
				s-21.68-49.56-55.08-49.56h-64.27V1699.98z"/>
			<path class="st0" d="M569.61,1927.64l98.04-257.04h37.84l97.67,257.04h-34.17l-27.16-69.39H629.81l-27.16,69.39H569.61
				L569.61,1927.64z M639.36,1829.24h92.92l-46.62-123.74l-46.26,123.74H639.36z"/>
			<path class="st0" d="M905.55,1927.64V1670.6h82.24c80.43,0,129.26,51.42,129.26,128.54s-48.84,128.54-129.26,128.54h-82.24
				V1927.64z M937.5,1898.26h50.29c62.42,0,96.59-39.29,96.59-99.16c0-59.88-34.17-99.12-96.59-99.12H937.5V1898.26z"/>
			<path class="st0" d="M1280.81,1795.84l-81.15-125.24h37.47l64.27,99.53l64.27-99.53h36.71l-81.15,123.02l86.67,134.02h-37.84
				l-69.79-107.59l-69.02,107.59h-37.11l86.67-131.84L1280.81,1795.84z"/>
			<path class="st0" d="M1510.29,1670.6h31.95v149.09c0,53.23,21.32,80.79,65.72,80.79c44.4,0,66.45-27.52,66.45-80.79V1670.6h31.95
				v147.24c0,73.46-34.17,112.02-98.4,112.02s-97.67-38.56-97.67-112.02L1510.29,1670.6L1510.29,1670.6z"/>
		</g>
		<g>
			<path class="st0" d="M1700.96,688.46c-43.88-352.5-345.2-618.32-700.96-618.32c-207.27,0-403.35,90.58-537.89,248.54
				c-21.84,25.63-42.03,53.07-59.96,81.56c-71,112.5-108.51,242.65-108.51,376.31s37.51,263.77,108.51,376.27
				c17.97,28.49,38.16,55.93,59.96,81.56c134.54,157.95,330.62,248.54,537.89,248.54c355.76,0,657.08-265.82,700.92-618.32
				c3.63-28.93,5.44-58.55,5.44-88.04s-1.81-59.15-5.44-88.08L1700.96,688.46z M1000.04,1432.3
				c-192.45,0-374.46-84.09-499.37-230.77c-20.27-23.77-39.01-49.24-55.69-75.71c-61.37-97.31-95.78-208.81-100.17-323.97h332.63
				c11.81,50.01,57.66,86.96,111.66,84.86c55.89-2.18,102.03-47.06,105.65-102.87c4.15-64.07-46.82-117.54-110.04-117.54
				c-52.1,0-95.82,36.31-107.3,84.94H344.77c4.39-115.16,38.8-226.7,100.17-324.01c16.68-26.43,35.42-51.9,55.69-75.71
				C625.54,204.89,807.55,120.8,1000,120.8c320.58,0,593.58,232.54,646.48,545.51h-205.06c-29.46,0-57.66-11.73-78.49-32.56
				l-19.74-19.82c-20.79-20.83-49.04-32.56-78.49-32.56h-157.47c-11.81-50.01-57.66-86.96-111.66-84.86
				c-55.89,2.18-102.03,47.06-105.65,102.87c-4.15,64.07,46.82,117.54,110.04,117.54c52.1,0,95.82-36.31,107.3-84.94h136.44
				c29.46,0,57.66,11.73,78.49,32.56l19.74,19.82c20.79,20.83,49.04,32.56,78.49,32.56h232.58c1.77,19.74,2.7,39.73,2.7,59.64
				s-0.93,39.89-2.7,59.6h-232.58c-29.46,0-57.66,11.73-78.49,32.56l-19.74,19.82c-20.79,20.83-49.04,32.56-78.49,32.56h-136.44
				c-11.81-50.01-57.66-86.96-111.66-84.86c-55.89,2.18-102.03,47.06-105.65,102.87c-4.15,64.07,46.82,117.54,110.04,117.54
				c52.1,0,95.82-36.31,107.3-84.94h157.47c29.46,0,57.66-11.73,78.49-32.56l19.74-19.82c20.79-20.83,49.04-32.56,78.49-32.56
				h205.06c-52.91,312.93-325.9,545.51-646.48,545.51L1000.04,1432.3z M725.11,776.55c0-32.88,26.76-59.64,59.64-59.64
				c32.88,0,59.64,26.76,59.64,59.64c0,32.88-26.76,59.64-59.64,59.64C751.87,836.18,725.11,809.43,725.11,776.55z M1059.64,606.67
				c0,32.88-26.76,59.64-59.64,59.64c-32.88,0-59.64-26.76-59.64-59.64s26.76-59.64,59.64-59.64
				C1032.88,547.03,1059.64,573.79,1059.64,606.67z M1059.64,946.43c0,32.88-26.76,59.64-59.64,59.64
				c-32.88,0-59.64-26.76-59.64-59.64c0-32.88,26.76-59.64,59.64-59.64C1032.88,886.79,1059.64,913.55,1059.64,946.43z"/>
			<path class="st0" d="M1481.68,595.26L1481.68,595.26c18.29,0,30.42-18.74,23.21-35.54c-84.7-197.04-280.93-332.51-504.89-332.51
				c-161.22,0-313.65,70.43-418.3,193.25c-16.96,19.91-32.68,41.26-46.62,63.42c-32.24,51.13-55.61,106.94-69.47,165.25
				c-3.79,15.88,8.38,31.11,24.7,31.11h0.04c11.77,0,21.92-8.14,24.66-19.62c12.57-52.83,33.69-103.4,62.9-149.69
				c12.69-20.11,26.92-39.49,42.35-57.58C715.24,341.85,853.65,277.86,1000,277.86c203.41,0,381.55,123.06,458.43,302.05
				c3.99,9.31,13.14,15.39,23.25,15.39V595.26z"/>
			<path class="st0" d="M1481.68,957.79c-10.15,0-19.26,6.04-23.25,15.39c-76.84,178.95-255.02,302.05-458.43,302.05
				c-146.35,0-284.76-63.95-379.73-175.48c-15.43-18.09-29.66-37.47-42.35-57.58c-29.21-46.3-50.33-96.87-62.9-149.69
				c-2.74-11.48-12.85-19.62-24.66-19.62h-0.04c-16.32,0-28.45,15.23-24.7,31.11c13.86,58.31,37.23,114.11,69.47,165.21
				c13.98,22.16,29.66,43.48,46.62,63.42c104.6,122.82,257.08,193.29,418.3,193.29c223.96,0,420.15-135.47,504.89-332.51
				c7.21-16.8-4.92-35.54-23.21-35.54l0,0L1481.68,957.79z"/>
		</g>
	</g>
</g>
</svg>
